<?xml version="1.0" encoding="UTF-8" standalone="no"?>
<!-- Created with Inkscape (http://www.inkscape.org/) -->

<svg
   xmlns:dc="http://purl.org/dc/elements/1.1/"
   xmlns:cc="http://creativecommons.org/ns#"
   xmlns:rdf="http://www.w3.org/1999/02/22-rdf-syntax-ns#"
   xmlns:svg="http://www.w3.org/2000/svg"
   xmlns="http://www.w3.org/2000/svg"
   xmlns:xlink="http://www.w3.org/1999/xlink"
   xmlns:sodipodi="http://sodipodi.sourceforge.net/DTD/sodipodi-0.dtd"
   xmlns:inkscape="http://www.inkscape.org/namespaces/inkscape"
   width="61.653625mm"
   height="35.390694mm"
   viewBox="0 0 218.45773 125.4001"
   id="svg2"
   version="1.1"
   inkscape:version="0.91 r13725"
   sodipodi:docname="walberla_blocks.svg">
  <sodipodi:namedview
     id="base"
     pagecolor="#ffffff"
     bordercolor="#666666"
     borderopacity="1.0"
     inkscape:pageopacity="0.0"
     inkscape:pageshadow="2"
     inkscape:zoom="4"
     inkscape:cx="142.40869"
     inkscape:cy="26.799911"
     inkscape:document-units="px"
     inkscape:current-layer="svg2"
     showgrid="false"
     inkscape:window-width="2560"
     inkscape:window-height="1371"
     inkscape:window-x="4480"
     inkscape:window-y="0"
     inkscape:window-maximized="1"
     fit-margin-top="0"
     fit-margin-left="0"
     fit-margin-right="0"
     fit-margin-bottom="0">
    <inkscape:grid
       id="grid4136"
       type="xygrid"
       originx="48.362094"
       originy="-864.69997" />
  </sodipodi:namedview>
  <defs
     id="defs4">
    <inkscape:path-effect
       effect="spiro"
       id="path-effect8294"
       is_visible="true" />
  </defs>
  <metadata
     id="metadata7">
    <rdf:RDF>
      <cc:Work
         rdf:about="">
        <dc:format>image/svg+xml</dc:format>
        <dc:type
           rdf:resource="http://purl.org/dc/dcmitype/StillImage" />
        <dc:title></dc:title>
      </cc:Work>
    </rdf:RDF>
  </metadata>
  <g
     id="layer1"
     inkscape:groupmode="layer"
     inkscape:label="Layer 1"
     transform="translate(48.362095,-62.262187)" />
  <rect
     style="opacity:1;fill:#94e2ff;fill-opacity:1;stroke:#000000;stroke-width:0.2;stroke-linejoin:miter;stroke-miterlimit:4;stroke-dasharray:none;stroke-dashoffset:0;stroke-opacity:1"
     id="rect8324"
     width="10"
     height="10"
     x="34.781345"
     y="1.0154506"
     inkscape:tile-cx="15"
     inkscape:tile-cy="67.362183"
     inkscape:tile-w="10.00001"
     inkscape:tile-h="10.00001"
     inkscape:tile-x0="9.999995"
     inkscape:tile-y0="62.362178" />
  <rect
     style="opacity:1;fill:#c7c7c7;fill-opacity:1;stroke:#000000;stroke-width:0.30000001;stroke-linejoin:miter;stroke-miterlimit:4;stroke-dasharray:none;stroke-dashoffset:0;stroke-opacity:1"
     id="rect8324-2"
     width="10"
     height="10"
     x="34.711391"
     y="15.813687"
     inkscape:tile-cx="15"
     inkscape:tile-cy="67.362183"
     inkscape:tile-w="10.00001"
     inkscape:tile-h="10.00001"
     inkscape:tile-x0="9.999995"
     inkscape:tile-y0="62.362178" />
  <g
     id="g8547"
     transform="translate(103.18126,-62.262187)">
    <use
       style="fill:#ffabab;fill-opacity:1"
       height="100%"
       width="100%"
       transform="translate(-24.781347,61.346736)"
       id="use8326"
       xlink:href="#rect8324"
       inkscape:tiled-clone-of="#rect8324"
       y="0"
       x="0" />
    <use
       height="100%"
       width="100%"
       id="use8328"
       transform="translate(-24.781347,71.346746)"
       xlink:href="#rect8324"
       inkscape:tiled-clone-of="#rect8324"
       y="0"
       x="0" />
    <use
       height="100%"
       width="100%"
       id="use8330"
       transform="translate(-24.781347,81.346756)"
       xlink:href="#rect8324"
       inkscape:tiled-clone-of="#rect8324"
       y="0"
       x="0" />
    <use
       height="100%"
       width="100%"
       id="use8332"
       transform="translate(-24.781347,91.346766)"
       xlink:href="#rect8324"
       inkscape:tiled-clone-of="#rect8324"
       y="0"
       x="0" />
    <use
       height="100%"
       width="100%"
       id="use8334"
       transform="translate(-24.781347,101.34678)"
       xlink:href="#rect8324"
       inkscape:tiled-clone-of="#rect8324"
       y="0"
       x="0" />
    <use
       height="100%"
       width="100%"
       id="use8336"
       transform="translate(-24.781347,111.34679)"
       xlink:href="#rect8324"
       inkscape:tiled-clone-of="#rect8324"
       y="0"
       x="0" />
    <use
       height="100%"
       width="100%"
       id="use8338"
       transform="translate(-14.781337,61.346736)"
       xlink:href="#rect8324"
       inkscape:tiled-clone-of="#rect8324"
       y="0"
       x="0" />
    <use
       height="100%"
       width="100%"
       id="use8348"
       transform="translate(-14.781337,111.34679)"
       xlink:href="#rect8324"
       inkscape:tiled-clone-of="#rect8324"
       y="0"
       x="0" />
    <use
       height="100%"
       width="100%"
       id="use8350"
       transform="translate(-4.7813269,61.346736)"
       xlink:href="#rect8324"
       inkscape:tiled-clone-of="#rect8324"
       y="0"
       x="0" />
    <use
       height="100%"
       width="100%"
       id="use8360"
       transform="translate(-4.7813269,111.34679)"
       xlink:href="#rect8324"
       inkscape:tiled-clone-of="#rect8324"
       y="0"
       x="0" />
    <use
       height="100%"
       width="100%"
       id="use8362"
       transform="translate(5.2186831,61.346736)"
       xlink:href="#rect8324"
       inkscape:tiled-clone-of="#rect8324"
       y="0"
       x="0" />
    <use
       height="100%"
       width="100%"
       id="use8372"
       transform="translate(5.2186831,111.34679)"
       xlink:href="#rect8324"
       inkscape:tiled-clone-of="#rect8324"
       y="0"
       x="0" />
    <use
       height="100%"
       width="100%"
       id="use8374"
       transform="translate(15.218693,61.346736)"
       xlink:href="#rect8324"
       inkscape:tiled-clone-of="#rect8324"
       y="0"
       x="0" />
    <use
       height="100%"
       width="100%"
       id="use8376"
       transform="translate(15.218693,71.346746)"
       xlink:href="#rect8324"
       inkscape:tiled-clone-of="#rect8324"
       y="0"
       x="0" />
    <use
       height="100%"
       width="100%"
       id="use8378"
       transform="translate(15.218693,81.346756)"
       xlink:href="#rect8324"
       inkscape:tiled-clone-of="#rect8324"
       y="0"
       x="0" />
    <use
       height="100%"
       width="100%"
       id="use8380"
       transform="translate(15.218693,91.346766)"
       xlink:href="#rect8324"
       inkscape:tiled-clone-of="#rect8324"
       y="0"
       x="0" />
    <use
       height="100%"
       width="100%"
       id="use8382"
       transform="translate(15.218693,101.34678)"
       xlink:href="#rect8324"
       inkscape:tiled-clone-of="#rect8324"
       y="0"
       x="0" />
    <use
       height="100%"
       width="100%"
       id="use8384"
       transform="translate(15.218693,111.34679)"
       xlink:href="#rect8324"
       inkscape:tiled-clone-of="#rect8324"
       y="0"
       x="0" />
    <use
       height="100%"
       width="100%"
       transform="translate(-14.711388,56.548511)"
       id="use8409"
       xlink:href="#rect8324-2"
       inkscape:tiled-clone-of="#rect8324-2"
       y="0"
       x="0" />
    <use
       height="100%"
       width="100%"
       id="use8411"
       transform="translate(-14.711388,66.548522)"
       xlink:href="#rect8324-2"
       inkscape:tiled-clone-of="#rect8324-2"
       y="0"
       x="0" />
    <use
       height="100%"
       width="100%"
       id="use8413"
       transform="translate(-14.711388,76.548532)"
       xlink:href="#rect8324-2"
       inkscape:tiled-clone-of="#rect8324-2"
       y="0"
       x="0" />
    <use
       height="100%"
       width="100%"
       id="use8415"
       transform="translate(-14.711388,86.548542)"
       xlink:href="#rect8324-2"
       inkscape:tiled-clone-of="#rect8324-2"
       y="0"
       x="0" />
    <use
       height="100%"
       width="100%"
       id="use8417"
       transform="translate(-4.7113779,56.548512)"
       xlink:href="#rect8324-2"
       inkscape:tiled-clone-of="#rect8324-2"
       y="0"
       x="0" />
    <use
       height="100%"
       width="100%"
       id="use8419"
       transform="translate(-4.7113779,66.548522)"
       xlink:href="#rect8324-2"
       inkscape:tiled-clone-of="#rect8324-2"
       y="0"
       x="0" />
    <use
       height="100%"
       width="100%"
       id="use8421"
       transform="translate(-4.7113779,76.548532)"
       xlink:href="#rect8324-2"
       inkscape:tiled-clone-of="#rect8324-2"
       y="0"
       x="0" />
    <use
       height="100%"
       width="100%"
       id="use8423"
       transform="translate(-4.7113779,86.548542)"
       xlink:href="#rect8324-2"
       inkscape:tiled-clone-of="#rect8324-2"
       y="0"
       x="0" />
    <use
       height="100%"
       width="100%"
       id="use8425"
       transform="translate(5.2886321,56.548512)"
       xlink:href="#rect8324-2"
       inkscape:tiled-clone-of="#rect8324-2"
       y="0"
       x="0" />
    <use
       height="100%"
       width="100%"
       id="use8427"
       transform="translate(5.2886321,66.548522)"
       xlink:href="#rect8324-2"
       inkscape:tiled-clone-of="#rect8324-2"
       y="0"
       x="0" />
    <use
       height="100%"
       width="100%"
       id="use8429"
       transform="translate(5.2886321,76.548532)"
       xlink:href="#rect8324-2"
       inkscape:tiled-clone-of="#rect8324-2"
       y="0"
       x="0" />
    <use
       height="100%"
       width="100%"
       id="use8431"
       transform="translate(5.2886321,86.548542)"
       xlink:href="#rect8324-2"
       inkscape:tiled-clone-of="#rect8324-2"
       y="0"
       x="0" />
  </g>
  <g
     id="g8515"
     transform="translate(-16.289736,2.5590552)">
    <use
       height="100%"
       width="100%"
       transform="translate(64.270956,0.37880721)"
       id="use8433"
       xlink:href="#use8326"
       y="0"
       x="0" />
    <use
       height="100%"
       width="100%"
       transform="translate(64.270956,0.37880721)"
       id="use8435"
       xlink:href="#use8328"
       y="0"
       x="0" />
    <use
       height="100%"
       width="100%"
       transform="translate(64.270956,0.37880721)"
       id="use8437"
       xlink:href="#use8330"
       y="0"
       x="0" />
    <use
       height="100%"
       width="100%"
       transform="translate(64.270956,0.37880721)"
       id="use8439"
       xlink:href="#use8332"
       y="0"
       x="0" />
    <use
       height="100%"
       width="100%"
       transform="translate(64.270956,0.37880721)"
       id="use8441"
       xlink:href="#use8334"
       y="0"
       x="0" />
    <use
       height="100%"
       width="100%"
       transform="translate(64.270956,0.37880721)"
       id="use8443"
       xlink:href="#use8336"
       y="0"
       x="0" />
    <use
       height="100%"
       width="100%"
       transform="translate(64.270956,0.37880721)"
       id="use8445"
       xlink:href="#use8338"
       y="0"
       x="0" />
    <use
       height="100%"
       width="100%"
       transform="translate(64.270956,0.37880721)"
       id="use8447"
       xlink:href="#use8348"
       y="0"
       x="0" />
    <use
       height="100%"
       width="100%"
       transform="translate(64.270956,0.37880721)"
       id="use8449"
       xlink:href="#use8350"
       y="0"
       x="0" />
    <use
       height="100%"
       width="100%"
       transform="translate(64.270956,0.37880721)"
       id="use8451"
       xlink:href="#use8360"
       y="0"
       x="0" />
    <use
       height="100%"
       width="100%"
       transform="translate(64.270956,0.37880721)"
       id="use8453"
       xlink:href="#use8362"
       y="0"
       x="0" />
    <use
       height="100%"
       width="100%"
       transform="translate(64.270956,0.37880721)"
       id="use8455"
       xlink:href="#use8372"
       y="0"
       x="0" />
    <use
       height="100%"
       width="100%"
       transform="translate(64.270956,0.37880721)"
       id="use8457"
       xlink:href="#use8374"
       y="0"
       x="0" />
    <use
       height="100%"
       width="100%"
       transform="translate(64.270956,0.37880721)"
       id="use8459"
       xlink:href="#use8376"
       y="0"
       x="0" />
    <use
       height="100%"
       width="100%"
       transform="translate(64.270956,0.37880721)"
       id="use8461"
       xlink:href="#use8378"
       y="0"
       x="0" />
    <use
       height="100%"
       width="100%"
       transform="translate(64.270956,0.37880721)"
       id="use8463"
       xlink:href="#use8380"
       y="0"
       x="0" />
    <use
       height="100%"
       width="100%"
       transform="translate(64.270956,0.37880721)"
       id="use8465"
       xlink:href="#use8382"
       y="0"
       x="0" />
    <use
       height="100%"
       width="100%"
       transform="translate(64.270956,0.37880721)"
       id="use8467"
       xlink:href="#use8384"
       y="0"
       x="0" />
    <use
       height="100%"
       width="100%"
       transform="translate(64.270956,0.37880721)"
       id="use8469"
       xlink:href="#use8409"
       y="0"
       x="0" />
    <use
       height="100%"
       width="100%"
       transform="translate(64.270956,0.37880721)"
       id="use8471"
       xlink:href="#use8411"
       y="0"
       x="0" />
    <use
       height="100%"
       width="100%"
       transform="translate(64.270956,0.37880721)"
       id="use8473"
       xlink:href="#use8413"
       y="0"
       x="0" />
    <use
       height="100%"
       width="100%"
       transform="translate(64.270956,0.37880721)"
       id="use8475"
       xlink:href="#use8415"
       y="0"
       x="0" />
    <use
       height="100%"
       width="100%"
       transform="translate(64.270956,0.37880721)"
       id="use8477"
       xlink:href="#use8417"
       y="0"
       x="0" />
    <use
       height="100%"
       width="100%"
       transform="translate(64.270956,0.37880721)"
       id="use8479"
       xlink:href="#use8419"
       y="0"
       x="0" />
    <use
       height="100%"
       width="100%"
       transform="translate(64.270956,0.37880721)"
       id="use8481"
       xlink:href="#use8421"
       y="0"
       x="0" />
    <use
       height="100%"
       width="100%"
       transform="translate(64.270956,0.37880721)"
       id="use8483"
       xlink:href="#use8423"
       y="0"
       x="0" />
    <use
       height="100%"
       width="100%"
       transform="translate(64.270956,0.37880721)"
       id="use8485"
       xlink:href="#use8425"
       y="0"
       x="0" />
    <use
       height="100%"
       width="100%"
       transform="translate(64.270956,0.37880721)"
       id="use8487"
       xlink:href="#use8427"
       y="0"
       x="0" />
    <use
       height="100%"
       width="100%"
       transform="translate(64.270956,0.37880721)"
       id="use8489"
       xlink:href="#use8429"
       y="0"
       x="0" />
    <use
       height="100%"
       width="100%"
       transform="translate(64.270956,0.37880721)"
       id="use8491"
       xlink:href="#use8431"
       y="0"
       x="0" />
  </g>
  <text
     xml:space="preserve"
     style="font-style:normal;font-weight:normal;font-size:7.5px;line-height:125%;font-family:sans-serif;letter-spacing:0px;word-spacing:0px;fill:#000000;fill-opacity:1;stroke:none;stroke-width:1px;stroke-linecap:butt;stroke-linejoin:miter;stroke-opacity:1"
     x="-0.28076172"
     y="6.4571352"
     id="text8493"
     sodipodi:linespacing="125%"><tspan
       sodipodi:role="line"
       id="tspan8495"
       x="-0.28076172"
       y="6.4571352"
       style="font-size:5px">Ghost Layer</tspan></text>
  <text
     xml:space="preserve"
     style="font-style:normal;font-weight:normal;font-size:7.5px;line-height:125%;font-family:sans-serif;letter-spacing:0px;word-spacing:0px;fill:#000000;fill-opacity:1;stroke:none;stroke-width:1px;stroke-linecap:butt;stroke-linejoin:miter;stroke-opacity:1"
     x="14.469238"
     y="22.653563"
     id="text8493-7"
     sodipodi:linespacing="125%"><tspan
       sodipodi:role="line"
       id="tspan8495-0"
       x="14.469238"
       y="22.653563"
       style="font-size:5px">Inner</tspan></text>
  <g
     transform="translate(-16.289736,-62.640994)"
     id="g8579">
    <use
       x="0"
       y="0"
       xlink:href="#use8326"
       id="use8581"
       transform="translate(64.270956,0.37880721)"
       width="100%"
       height="100%" />
    <use
       x="0"
       y="0"
       xlink:href="#use8328"
       id="use8583"
       transform="translate(64.270956,0.37880721)"
       width="100%"
       height="100%" />
    <use
       x="0"
       y="0"
       xlink:href="#use8330"
       id="use8585"
       transform="translate(64.270956,0.37880721)"
       width="100%"
       height="100%" />
    <use
       x="0"
       y="0"
       xlink:href="#use8332"
       id="use8587"
       transform="translate(64.270956,0.37880721)"
       width="100%"
       height="100%" />
    <use
       x="0"
       y="0"
       xlink:href="#use8334"
       id="use8589"
       transform="translate(64.270956,0.37880721)"
       width="100%"
       height="100%" />
    <use
       x="0"
       y="0"
       xlink:href="#use8336"
       id="use8591"
       transform="translate(64.270956,0.37880721)"
       width="100%"
       height="100%" />
    <use
       x="0"
       y="0"
       xlink:href="#use8338"
       id="use8593"
       transform="translate(64.270956,0.37880721)"
       width="100%"
       height="100%" />
    <use
       x="0"
       y="0"
       xlink:href="#use8348"
       id="use8595"
       transform="translate(64.270956,0.37880721)"
       width="100%"
       height="100%" />
    <use
       x="0"
       y="0"
       xlink:href="#use8350"
       id="use8597"
       transform="translate(64.270956,0.37880721)"
       width="100%"
       height="100%" />
    <use
       x="0"
       y="0"
       xlink:href="#use8360"
       id="use8599"
       transform="translate(64.270956,0.37880721)"
       width="100%"
       height="100%" />
    <use
       x="0"
       y="0"
       xlink:href="#use8362"
       id="use8601"
       transform="translate(64.270956,0.37880721)"
       width="100%"
       height="100%" />
    <use
       x="0"
       y="0"
       xlink:href="#use8372"
       id="use8603"
       transform="translate(64.270956,0.37880721)"
       width="100%"
       height="100%" />
    <use
       x="0"
       y="0"
       xlink:href="#use8374"
       id="use8605"
       transform="translate(64.270956,0.37880721)"
       width="100%"
       height="100%" />
    <use
       x="0"
       y="0"
       xlink:href="#use8376"
       id="use8607"
       transform="translate(64.270956,0.37880721)"
       width="100%"
       height="100%" />
    <use
       x="0"
       y="0"
       xlink:href="#use8378"
       id="use8609"
       transform="translate(64.270956,0.37880721)"
       width="100%"
       height="100%" />
    <use
       x="0"
       y="0"
       xlink:href="#use8380"
       id="use8611"
       transform="translate(64.270956,0.37880721)"
       width="100%"
       height="100%" />
    <use
       x="0"
       y="0"
       xlink:href="#use8382"
       id="use8613"
       transform="translate(64.270956,0.37880721)"
       width="100%"
       height="100%" />
    <use
       x="0"
       y="0"
       xlink:href="#use8384"
       id="use8615"
       transform="translate(64.270956,0.37880721)"
       width="100%"
       height="100%" />
    <use
       x="0"
       y="0"
       xlink:href="#use8409"
       id="use8617"
       transform="translate(64.270956,0.37880721)"
       width="100%"
       height="100%" />
    <use
       x="0"
       y="0"
       xlink:href="#use8411"
       id="use8619"
       transform="translate(64.270956,0.37880721)"
       width="100%"
       height="100%" />
    <use
       x="0"
       y="0"
       xlink:href="#use8413"
       id="use8621"
       transform="translate(64.270956,0.37880721)"
       width="100%"
       height="100%" />
    <use
       x="0"
       y="0"
       xlink:href="#use8415"
       id="use8623"
       transform="translate(64.270956,0.37880721)"
       width="100%"
       height="100%" />
    <use
       x="0"
       y="0"
       xlink:href="#use8417"
       id="use8625"
       transform="translate(64.270956,0.37880721)"
       width="100%"
       height="100%" />
    <use
       x="0"
       y="0"
       xlink:href="#use8419"
       id="use8627"
       transform="translate(64.270956,0.37880721)"
       width="100%"
       height="100%" />
    <use
       x="0"
       y="0"
       xlink:href="#use8421"
       id="use8629"
       transform="translate(64.270956,0.37880721)"
       width="100%"
       height="100%" />
    <use
       x="0"
       y="0"
       xlink:href="#use8423"
       id="use8631"
       transform="translate(64.270956,0.37880721)"
       width="100%"
       height="100%" />
    <use
       x="0"
       y="0"
       xlink:href="#use8425"
       id="use8633"
       transform="translate(64.270956,0.37880721)"
       width="100%"
       height="100%" />
    <use
       x="0"
       y="0"
       xlink:href="#use8427"
       id="use8635"
       transform="translate(64.270956,0.37880721)"
       width="100%"
       height="100%" />
    <use
       x="0"
       y="0"
       xlink:href="#use8429"
       id="use8637"
       transform="translate(64.270956,0.37880721)"
       width="100%"
       height="100%" />
    <use
       x="0"
       y="0"
       xlink:href="#use8431"
       id="use8639"
       transform="translate(64.270956,0.37880721)"
       width="100%"
       height="100%" />
  </g>
  <g
     id="g8641"
     transform="translate(38.910304,2.5590552)">
    <use
       height="100%"
       width="100%"
       transform="translate(64.270956,0.37880721)"
       id="use8643"
       xlink:href="#use8326"
       y="0"
       x="0" />
    <use
       height="100%"
       width="100%"
       transform="translate(64.270956,0.37880721)"
       id="use8645"
       xlink:href="#use8328"
       y="0"
       x="0" />
    <use
       height="100%"
       width="100%"
       transform="translate(64.270956,0.37880721)"
       id="use8647"
       xlink:href="#use8330"
       y="0"
       x="0" />
    <use
       height="100%"
       width="100%"
       transform="translate(64.270956,0.37880721)"
       id="use8649"
       xlink:href="#use8332"
       y="0"
       x="0" />
    <use
       height="100%"
       width="100%"
       transform="translate(64.270956,0.37880721)"
       id="use8651"
       xlink:href="#use8334"
       y="0"
       x="0" />
    <use
       height="100%"
       width="100%"
       transform="translate(64.270956,0.37880721)"
       id="use8653"
       xlink:href="#use8336"
       y="0"
       x="0" />
    <use
       height="100%"
       width="100%"
       transform="translate(64.270956,0.37880721)"
       id="use8655"
       xlink:href="#use8338"
       y="0"
       x="0" />
    <use
       height="100%"
       width="100%"
       transform="translate(64.270956,0.37880721)"
       id="use8657"
       xlink:href="#use8348"
       y="0"
       x="0" />
    <use
       height="100%"
       width="100%"
       transform="translate(64.270956,0.37880721)"
       id="use8659"
       xlink:href="#use8350"
       y="0"
       x="0" />
    <use
       height="100%"
       width="100%"
       transform="translate(64.270956,0.37880721)"
       id="use8661"
       xlink:href="#use8360"
       y="0"
       x="0" />
    <use
       height="100%"
       width="100%"
       transform="translate(64.270956,0.37880721)"
       id="use8663"
       xlink:href="#use8362"
       y="0"
       x="0" />
    <use
       height="100%"
       width="100%"
       transform="translate(64.270956,0.37880721)"
       id="use8665"
       xlink:href="#use8372"
       y="0"
       x="0" />
    <use
       height="100%"
       width="100%"
       transform="translate(64.270956,0.37880721)"
       id="use8667"
       xlink:href="#use8374"
       y="0"
       x="0" />
    <use
       height="100%"
       width="100%"
       transform="translate(64.270956,0.37880721)"
       id="use8669"
       xlink:href="#use8376"
       y="0"
       x="0" />
    <use
       height="100%"
       width="100%"
       transform="translate(64.270956,0.37880721)"
       id="use8671"
       xlink:href="#use8378"
       y="0"
       x="0" />
    <use
       height="100%"
       width="100%"
       transform="translate(64.270956,0.37880721)"
       id="use8673"
       xlink:href="#use8380"
       y="0"
       x="0" />
    <use
       height="100%"
       width="100%"
       transform="translate(64.270956,0.37880721)"
       id="use8675"
       xlink:href="#use8382"
       y="0"
       x="0" />
    <use
       height="100%"
       width="100%"
       transform="translate(64.270956,0.37880721)"
       id="use8677"
       xlink:href="#use8384"
       y="0"
       x="0" />
    <use
       height="100%"
       width="100%"
       transform="translate(64.270956,0.37880721)"
       id="use8679"
       xlink:href="#use8409"
       y="0"
       x="0" />
    <use
       height="100%"
       width="100%"
       transform="translate(64.270956,0.37880721)"
       id="use8681"
       xlink:href="#use8411"
       y="0"
       x="0" />
    <use
       height="100%"
       width="100%"
       transform="translate(64.270956,0.37880721)"
       id="use8683"
       xlink:href="#use8413"
       y="0"
       x="0" />
    <use
       height="100%"
       width="100%"
       transform="translate(64.270956,0.37880721)"
       id="use8685"
       xlink:href="#use8415"
       y="0"
       x="0" />
    <use
       height="100%"
       width="100%"
       transform="translate(64.270956,0.37880721)"
       id="use8687"
       xlink:href="#use8417"
       y="0"
       x="0" />
    <use
       height="100%"
       width="100%"
       transform="translate(64.270956,0.37880721)"
       id="use8689"
       xlink:href="#use8419"
       y="0"
       x="0" />
    <use
       height="100%"
       width="100%"
       transform="translate(64.270956,0.37880721)"
       id="use8691"
       xlink:href="#use8421"
       y="0"
       x="0" />
    <use
       height="100%"
       width="100%"
       transform="translate(64.270956,0.37880721)"
       id="use8693"
       xlink:href="#use8423"
       y="0"
       x="0" />
    <use
       height="100%"
       width="100%"
       transform="translate(64.270956,0.37880721)"
       id="use8695"
       xlink:href="#use8425"
       y="0"
       x="0" />
    <use
       height="100%"
       width="100%"
       transform="translate(64.270956,0.37880721)"
       id="use8697"
       xlink:href="#use8427"
       y="0"
       x="0" />
    <use
       height="100%"
       width="100%"
       transform="translate(64.270956,0.37880721)"
       id="use8699"
       xlink:href="#use8429"
       y="0"
       x="0" />
    <use
       height="100%"
       width="100%"
       transform="translate(64.270956,0.37880721)"
       id="use8701"
       xlink:href="#use8431"
       y="0"
       x="0" />
  </g>
  <use
     x="0"
     y="0"
     xlink:href="#g8547"
     id="use8808"
     transform="translate(55.176426,1.5980072e-7)"
     width="100%"
     height="100%" />
</svg>
